PathFileType	4	(X/Y/Z)	D:\TRACE\v60_Jaco2_6-2-23\BothDRS_Motion1_4-platform.trc
DataRate	CameraRate	NumFrames	NumMarkers	Units	OrigDataRate	OrigDataStartFrame	OrigNumFrames
100.00	100.00	      55	5	mm	100.00	2618	      6979
Frame#	Time	Left_Front			Right_Front			Left_Aft			Right_Aft			Post			
		X1	Y1	Z1	X2	Y2	Z2	X3	Y3	Z3	X4	Y4	Z4	X5	Y5	Z5	

2618	26.170	-761.00775	22.63075	-635.71362	809.01471	24.53119	-640.85321	-669.24695	-2.14203	499.16205	773.07660	-2.77624	509.00760	24.91674	1328.46375	-931.17670	
2619	26.180	-761.61298	22.25570	-635.67920	808.39514	24.28113	-640.99292	-670.04181	-1.76151	499.06241	772.73840	-2.60294	508.76126	24.23491	1327.60010	-931.91138	
2620	26.190	-762.45599	21.61306	-635.70068	807.61542	23.22523	-641.04517	-670.39252	-1.35592	498.96243	771.69952	-2.24340	508.32913	23.65548	1326.98572	-932.69940	
2621	26.200	-762.93054	21.07311	-636.34412	807.06665	22.82069	-641.20966	-670.97418	-0.96981	498.79562	771.06488	-1.96717	508.25726	22.91571	1326.07813	-933.84656	
2622	26.210	-763.51257	20.52462	-636.44647	806.54926	22.43476	-641.35754	-671.87775	-0.33212	498.49207	770.55219	-1.47965	508.26474	22.68306	1325.25598	-934.78625	
2623	26.220	-764.10034	19.99016	-636.46265	806.01990	21.68577	-641.60309	-672.48895	-0.16858	498.43073	770.16644	-1.00707	508.14511	22.10661	1324.51343	-936.62518	
2624	26.230	-764.59277	19.38247	-636.76593	805.11407	21.13402	-641.88770	-673.17352	0.33826	498.14755	769.60651	-0.62452	508.02347	21.57363	1323.61890	-938.42529	
2625	26.240	-765.30499	18.90793	-636.57648	804.61017	20.77834	-641.72516	-673.84723	0.73481	498.09689	768.78619	-0.21763	507.93286	20.80575	1322.85242	-940.33691	
2626	26.250	-766.29559	18.21825	-636.62543	803.72327	20.20057	-641.86542	-674.55981	1.15594	497.99026	769.02893	0.52851	507.78189	20.36359	1322.04932	-942.33655	
2627	26.260	-766.90094	17.92657	-636.93341	803.16742	19.54413	-641.96417	-675.51312	1.68334	497.75226	767.43420	0.48648	507.93033	19.57639	1321.48474	-944.23389	
2628	26.270	-767.55615	17.39817	-637.09723	802.63403	19.06028	-642.14288	-675.98004	1.74809	497.54688	766.73578	0.64865	507.70175	18.84247	1321.00793	-945.49768	
2629	26.280	-768.15216	17.09533	-637.17590	802.16443	18.90368	-642.19427	-676.61664	2.02153	497.41641	765.90332	0.80757	507.65817	18.09315	1320.38354	-946.66467	
2630	26.290	-768.74176	16.82175	-637.24640	801.21417	18.57983	-642.35352	-677.57074	2.36461	497.25015	764.89429	0.91202	507.72034	17.63310	1319.88770	-947.65015	
2631	26.300	-769.34595	16.58504	-637.25977	800.31622	18.10825	-642.49646	-678.36603	2.74853	497.22128	764.91888	1.46791	507.46097	16.96775	1319.45313	-948.45374	
2632	26.310	-770.59961	16.11667	-637.30707	799.62537	17.69982	-642.46796	-678.86731	3.13225	497.10898	763.57483	1.86721	507.37872	16.31660	1318.74561	-948.96655	
2633	26.320	-771.28479	15.85775	-637.62640	798.88690	17.45542	-642.66083	-679.11591	2.63422	497.67377	762.88220	2.07053	507.35501	15.38174	1318.05457	-949.16626	
2634	26.330	-771.93573	15.30919	-637.69458	798.17334	16.87958	-642.81061	-679.92456	2.86541	497.51923	762.31793	2.31000	507.25723	14.54318	1317.55579	-949.44513	
2635	26.340	-772.51337	14.43699	-637.65540	797.27319	16.31816	-642.93036	-680.77832	3.23395	497.41061	761.42285	2.69859	507.15359	13.59081	1316.85864	-949.43719	
2636	26.350	-773.26056	14.03036	-637.79254	796.75964	15.89484	-642.78589	-681.26031	3.59794	497.41165	760.91492	3.09781	507.09906	12.51923	1316.10938	-949.08539	
2637	26.360	-774.26245	13.44252	-637.65454	796.02136	15.44688	-642.94336	-682.13678	3.93219	497.33780	760.27930	3.47763	506.95480	11.70474	1315.52869	-949.25500	
2638	26.370	-775.00006	13.20989	-638.07147	794.88904	14.77588	-643.38580	-683.18988	4.38382	497.17111	759.15125	3.86069	506.94919	10.90262	1314.53137	-949.86639	
2639	26.380	-775.71545	12.60983	-638.39813	794.33636	14.37423	-643.43506	-683.71216	4.59191	497.04324	757.98224	4.15686	506.85214	10.47703	1313.88953	-951.32361	
2640	26.390	-776.40051	12.03707	-638.41766	793.62671	13.87563	-643.35278	-685.26855	5.93234	496.24167	757.59216	4.50750	506.72983	9.38526	1312.97217	-952.96082	
2641	26.400	-777.24872	11.53667	-638.47443	792.60272	13.25414	-643.59637	-686.18488	6.30023	496.04623	756.75812	4.85466	506.43671	8.87227	1312.27576	-955.10657	
2642	26.410	-778.22552	10.99024	-638.37860	791.80988	12.89137	-643.65845	-686.92938	6.64978	496.05228	755.97064	5.24003	506.35257	7.97751	1311.67175	-957.57867	
2643	26.420	-779.18622	10.47431	-638.59912	791.01971	12.48739	-643.65808	-687.47223	6.87230	496.00769	755.20844	5.67512	506.16132	7.20665	1310.88123	-959.91608	
2644	26.430	-779.93695	10.18019	-638.87274	790.22388	11.89891	-643.77179	-688.52466	7.15047	495.78497	754.28705	5.76184	506.34015	6.47785	1310.31482	-961.48462	
2645	26.440	-780.72925	9.58016	-638.73663	789.24066	11.37213	-644.04846	-689.45752	7.35656	495.63672	753.11066	6.18018	506.24115	5.87558	1309.40271	-963.32715	
2646	26.450	-781.52057	9.08854	-638.94611	788.48694	11.10651	-644.00507	-690.08130	7.51271	495.53241	752.04718	6.07086	506.35608	4.72285	1308.85815	-964.78723	
2647	26.460	-782.59644	8.91707	-638.98553	787.56378	10.48332	-644.07123	-690.51990	7.26321	496.15390	751.72607	6.92499	505.40399	4.22042	1308.38318	-966.10889	
2648	26.470	-783.58899	8.47080	-639.16791	786.77917	10.10782	-644.32904	-691.59003	7.63968	496.13602	750.95142	7.21219	505.65518	2.95398	1307.66394	-967.24445	
2649	26.480	-784.19751	8.12680	-639.53040	785.81470	9.67528	-644.55536	-692.14294	7.94832	496.08432	749.94293	7.56681	505.71368	2.17486	1306.99829	-968.01190	
2650	26.490	-784.90796	7.44007	-639.53619	785.01373	9.19179	-644.51196	-693.14813	8.23161	496.09723	749.08203	7.66926	505.41492	1.28520	1306.23926	-968.64368	
2651	26.500	-785.98615	6.89403	-639.42169	784.03967	8.55416	-644.53815	-694.30322	8.53741	495.77396	747.98004	8.11140	505.29202	0.53312	1305.36426	-968.81891	
2652	26.510	-787.14056	6.43847	-639.45715	783.06250	8.11596	-644.81024	-695.02875	8.84508	495.64578	747.42938	8.54619	505.13855	-0.58647	1304.83191	-969.08221	
2653	26.520	-787.95184	5.95037	-639.84576	782.13580	7.64049	-644.73810	-695.91333	9.25177	495.40161	746.43799	8.96504	505.02316	-1.65593	1304.16040	-969.09406	
2654	26.530	-788.69916	5.53144	-640.02277	781.23071	7.30408	-644.78278	-697.02716	9.74846	495.36166	745.35297	9.22603	505.05453	-2.40070	1303.34485	-968.95447	
2655	26.540	-789.60187	5.02835	-639.79169	780.30951	6.71298	-645.13892	-697.53168	9.89081	495.29987	744.66492	9.59380	504.98947	-3.44712	1302.73376	-968.60632	
2656	26.550	-790.58185	4.70293	-639.95801	779.47095	6.54830	-644.96606	-698.71875	10.07608	495.02997	743.53827	9.90869	504.81989	-4.54781	1301.89685	-968.81085	
2657	26.560	-791.60620	4.34299	-640.15662	778.39520	6.16480	-645.06824	-699.68201	10.35793	494.90381	742.89679	10.17651	504.75378	-5.62205	1301.52124	-969.74542	
2658	26.570	-792.41083	4.23908	-640.28333	777.59387	5.66791	-645.37341	-700.46460	10.69970	495.04855	741.95392	10.54653	504.50558	-6.40361	1301.12793	-970.82001	
2659	26.580	-793.33185	3.64935	-640.14252	776.56580	5.03715	-645.42963	-701.50403	11.04857	495.04083	740.54987	10.73700	504.52188	-7.38875	1300.15308	-972.16602	
2660	26.590	-794.50684	2.71789	-640.06604	775.70282	4.07060	-645.36285	-702.53619	11.48277	494.84659	739.90961	11.15230	504.43542	-8.47186	1299.58984	-973.93884	
2661	26.600	-795.47131	2.33809	-640.47919	774.70508	3.68405	-645.73444	-703.46637	11.71910	494.68503	738.94049	11.48485	504.27893	-9.05501	1298.66992	-975.72388	
2662	26.610	-796.34009	1.91957	-640.72620	773.84161	3.42156	-645.77014	-704.35394	11.95478	494.65472	737.99127	11.79343	504.25046	-9.99835	1298.06030	-977.46149	
2663	26.620	-797.12842	1.67115	-640.60162	772.74170	3.12135	-645.84009	-705.38367	12.29574	494.71167	737.31470	12.12677	504.23517	-10.95757	1297.53918	-979.07306	
2664	26.630	-798.12354	1.36105	-640.62164	771.82697	2.57413	-645.75256	-706.15717	12.57266	494.46835	735.94604	12.58797	504.19299	-12.29819	1296.80347	-980.43506	
2665	26.640	-799.08508	0.77839	-640.71991	771.03992	2.19828	-646.00238	-707.03314	12.89431	494.36053	735.25818	12.75629	503.93781	-12.91646	1296.15674	-981.79474	
2666	26.650	-800.08392	0.39912	-641.33258	770.12384	1.95989	-646.08380	-708.17194	13.32577	494.22424	734.35236	13.18428	503.76852	-14.05608	1295.39001	-982.88940	
2667	26.660	-800.77661	-0.02714	-641.24390	768.94458	1.55385	-646.00336	-709.03821	13.38814	494.23871	732.83734	13.22841	503.72049	-14.58667	1294.67688	-983.42090	
2668	26.670	-802.08105	-0.34906	-640.97406	768.12085	0.86734	-646.09802	-710.10791	13.78551	494.02780	732.20636	13.56587	503.59805	-15.49948	1294.30322	-984.06836	
2669	26.680	-802.92975	-0.49893	-641.15900	767.08514	0.54567	-646.37347	-711.25665	14.23200	493.91544	731.18207	13.89470	503.58640	-16.91856	1293.69739	-984.58368	
2670	26.690	-804.00134	-1.25044	-641.46826	766.16724	0.34602	-646.13184	-711.97711	14.40700	493.81094	730.41632	14.32930	503.54709	-17.63526	1293.07898	-984.86407	
2671	26.700	-804.90637	-1.68890	-641.36084	765.19916	0.04337	-646.21246	-713.09436	14.72969	493.81778	729.57532	14.58050	503.49200	-18.69862	1292.70593	-985.11194	
2672	26.710	-805.87970	-2.18471	-640.89392	764.24554	-0.60143	-646.41412	-713.95917	14.83234	493.78336	728.06274	14.64060	503.44427	-19.70853	1291.84058	-985.45264	
